<?xml version="1.0" encoding="UTF-8" standalone="no"?>
<!-- Created with Inkscape (http://www.inkscape.org/) -->

<svg
   xmlns:dc="http://purl.org/dc/elements/1.1/"
   xmlns:cc="http://creativecommons.org/ns#"
   xmlns:rdf="http://www.w3.org/1999/02/22-rdf-syntax-ns#"
   xmlns:svg="http://www.w3.org/2000/svg"
   xmlns="http://www.w3.org/2000/svg"
   xmlns:xlink="http://www.w3.org/1999/xlink"
   xmlns:sodipodi="http://sodipodi.sourceforge.net/DTD/sodipodi-0.dtd"
   xmlns:inkscape="http://www.inkscape.org/namespaces/inkscape"
   width="480"
   height="800"
   id="svg2"
   version="1.1"
   inkscape:version="0.48.3.1 r9886"
   sodipodi:docname="interface.svg">
  <defs
     id="defs4">
    <linearGradient
       gradientTransform="matrix(2.8929458,0,0,2.8929458,-219.56533,-1226.7741)"
       y2="518.19073"
       x2="232.34523"
       y1="624.56262"
       x1="232.34523"
       gradientUnits="userSpaceOnUse"
       id="linearGradient3977"
       xlink:href="#linearGradient3759"
       inkscape:collect="always" />
    <linearGradient
       y2="518.19073"
       x2="232.34523"
       y1="624.56262"
       x1="232.34523"
       gradientTransform="matrix(0.17581071,0,0,2.8929458,521.42245,-1226.7741)"
       gradientUnits="userSpaceOnUse"
       id="linearGradient3974"
       xlink:href="#linearGradient3795"
       inkscape:collect="always" />
    <linearGradient
       y2="518.19073"
       x2="232.34523"
       y1="624.56262"
       x1="232.34523"
       gradientTransform="matrix(0.14227599,0,0,2.8929458,343.27713,-1226.7741)"
       gradientUnits="userSpaceOnUse"
       id="linearGradient3971"
       xlink:href="#linearGradient3807"
       inkscape:collect="always" />
    <linearGradient
       y2="518.19073"
       x2="232.34523"
       y1="624.56262"
       x1="232.34523"
       gradientTransform="matrix(0.04918032,0,0,1,194.55686,0)"
       gradientUnits="userSpaceOnUse"
       id="linearGradient3965"
       xlink:href="#linearGradient3807"
       inkscape:collect="always" />
    <linearGradient
       y2="518.19073"
       x2="232.34523"
       y1="624.56262"
       x1="232.34523"
       gradientTransform="matrix(0.06077223,0,0,1,256.13609,0)"
       gradientUnits="userSpaceOnUse"
       id="linearGradient3963"
       xlink:href="#linearGradient3795"
       inkscape:collect="always" />
    <linearGradient
       y2="518.19073"
       x2="232.34523"
       y1="624.56262"
       x1="232.34523"
       gradientUnits="userSpaceOnUse"
       id="linearGradient3961"
       xlink:href="#linearGradient3759"
       inkscape:collect="always" />
    <linearGradient
       gradientTransform="matrix(2.8929458,0,0,2.8929458,-422.07153,-1226.7741)"
       y2="518.19073"
       x2="232.34523"
       y1="624.56262"
       x1="232.34523"
       gradientUnits="userSpaceOnUse"
       id="linearGradient3959"
       xlink:href="#linearGradient3759"
       inkscape:collect="always" />
    <linearGradient
       y2="518.19073"
       x2="232.34523"
       y1="624.56262"
       x1="232.34523"
       gradientTransform="matrix(0.17581071,0,0,2.8929458,318.9163,-1226.7741)"
       gradientUnits="userSpaceOnUse"
       id="linearGradient3956"
       xlink:href="#linearGradient3795"
       inkscape:collect="always" />
    <linearGradient
       y2="518.19073"
       x2="232.34523"
       y1="624.56262"
       x1="232.34523"
       gradientTransform="matrix(0.14227599,0,0,2.8929458,140.77103,-1226.7741)"
       gradientUnits="userSpaceOnUse"
       id="linearGradient3953"
       xlink:href="#linearGradient3807"
       inkscape:collect="always" />
    <linearGradient
       y2="518.19073"
       x2="232.34523"
       y1="624.56262"
       x1="232.34523"
       gradientTransform="matrix(0.04918032,0,0,1,194.55686,0)"
       gradientUnits="userSpaceOnUse"
       id="linearGradient3947"
       xlink:href="#linearGradient3807"
       inkscape:collect="always" />
    <linearGradient
       y2="518.19073"
       x2="232.34523"
       y1="624.56262"
       x1="232.34523"
       gradientTransform="matrix(0.06077223,0,0,1,256.13609,0)"
       gradientUnits="userSpaceOnUse"
       id="linearGradient3945"
       xlink:href="#linearGradient3795"
       inkscape:collect="always" />
    <linearGradient
       y2="518.19073"
       x2="232.34523"
       y1="624.56262"
       x1="232.34523"
       gradientUnits="userSpaceOnUse"
       id="linearGradient3943"
       xlink:href="#linearGradient3759"
       inkscape:collect="always" />
    <linearGradient
       y2="518.19073"
       x2="232.34523"
       y1="624.56262"
       x1="232.34523"
       gradientTransform="matrix(0.04918032,0,0,1,194.55686,0)"
       gradientUnits="userSpaceOnUse"
       id="linearGradient3805"
       xlink:href="#linearGradient3807"
       inkscape:collect="always" />
    <linearGradient
       gradientTransform="matrix(0.06077223,0,0,1,256.13609,0)"
       y2="518.19073"
       x2="232.34523"
       y1="624.56262"
       x1="232.34523"
       gradientUnits="userSpaceOnUse"
       id="linearGradient3793"
       xlink:href="#linearGradient3795"
       inkscape:collect="always" />
    <linearGradient
       gradientUnits="userSpaceOnUse"
       y2="518.19073"
       x2="232.34523"
       y1="624.56262"
       x1="232.34523"
       id="linearGradient3765"
       xlink:href="#linearGradient3759"
       inkscape:collect="always" />
    <linearGradient
       id="linearGradient3759">
      <stop
         id="stop3761"
         offset="0"
         style="stop-color:#0b0b0b;stop-opacity:1;" />
      <stop
         style="stop-color:#737373;stop-opacity:1;"
         offset="0.50220263"
         id="stop3769" />
      <stop
         style="stop-color:#0e0e0e;stop-opacity:1;"
         offset="1"
         id="stop3767" />
    </linearGradient>
    <linearGradient
       id="linearGradient3795">
      <stop
         style="stop-color:#2f2f2f;stop-opacity:1;"
         offset="0"
         id="stop3797" />
      <stop
         id="stop3799"
         offset="0.73127753"
         style="stop-color:#909090;stop-opacity:1;" />
      <stop
         id="stop3801"
         offset="1"
         style="stop-color:#292929;stop-opacity:1;" />
    </linearGradient>
    <linearGradient
       id="linearGradient3807">
      <stop
         id="stop3809"
         offset="0"
         style="stop-color:#292929;stop-opacity:1;" />
      <stop
         style="stop-color:#3b3b3b;stop-opacity:1;"
         offset="0.33920705"
         id="stop3811" />
      <stop
         style="stop-color:#212121;stop-opacity:1;"
         offset="1"
         id="stop3813" />
    </linearGradient>
    <linearGradient
       inkscape:collect="always"
       xlink:href="#linearGradient3759"
       id="linearGradient3986"
       gradientUnits="userSpaceOnUse"
       gradientTransform="matrix(2.8929458,0,0,2.8929458,-219.56533,-1226.7741)"
       x1="232.34523"
       y1="624.56262"
       x2="232.34523"
       y2="518.19073" />
    <linearGradient
       inkscape:collect="always"
       xlink:href="#linearGradient3795"
       id="linearGradient3988"
       gradientUnits="userSpaceOnUse"
       gradientTransform="matrix(0.17581071,0,0,2.8929458,521.42245,-1226.7741)"
       x1="232.34523"
       y1="624.56262"
       x2="232.34523"
       y2="518.19073" />
    <linearGradient
       inkscape:collect="always"
       xlink:href="#linearGradient3807"
       id="linearGradient3990"
       gradientUnits="userSpaceOnUse"
       gradientTransform="matrix(0.14227599,0,0,2.8929458,343.27713,-1226.7741)"
       x1="232.34523"
       y1="624.56262"
       x2="232.34523"
       y2="518.19073" />
    <linearGradient
       inkscape:collect="always"
       xlink:href="#linearGradient3759"
       id="linearGradient3992"
       gradientUnits="userSpaceOnUse"
       gradientTransform="matrix(2.8929458,0,0,2.8929458,-422.07153,-1226.7741)"
       x1="232.34523"
       y1="624.56262"
       x2="232.34523"
       y2="518.19073" />
    <linearGradient
       inkscape:collect="always"
       xlink:href="#linearGradient3795"
       id="linearGradient3994"
       gradientUnits="userSpaceOnUse"
       gradientTransform="matrix(0.17581071,0,0,2.8929458,318.9163,-1226.7741)"
       x1="232.34523"
       y1="624.56262"
       x2="232.34523"
       y2="518.19073" />
    <linearGradient
       inkscape:collect="always"
       xlink:href="#linearGradient3807"
       id="linearGradient3996"
       gradientUnits="userSpaceOnUse"
       gradientTransform="matrix(0.14227599,0,0,2.8929458,140.77103,-1226.7741)"
       x1="232.34523"
       y1="624.56262"
       x2="232.34523"
       y2="518.19073" />
  </defs>
  <sodipodi:namedview
     id="base"
     pagecolor="#ffffff"
     bordercolor="#666666"
     borderopacity="1.0"
     inkscape:pageopacity="0.0"
     inkscape:pageshadow="2"
     inkscape:zoom="0.5"
     inkscape:cx="-55.4556"
     inkscape:cy="366.8207"
     inkscape:document-units="px"
     inkscape:current-layer="layer1"
     showgrid="false"
     inkscape:window-width="1440"
     inkscape:window-height="876"
     inkscape:window-x="0"
     inkscape:window-y="24"
     inkscape:window-maximized="1" />
  <metadata
     id="metadata7">
    <rdf:RDF>
      <cc:Work
         rdf:about="">
        <dc:format>image/svg+xml</dc:format>
        <dc:type
           rdf:resource="http://purl.org/dc/dcmitype/StillImage" />
        <dc:title></dc:title>
      </cc:Work>
    </rdf:RDF>
  </metadata>
  <g
     inkscape:label="Layer 1"
     inkscape:groupmode="layer"
     id="layer1"
     transform="translate(0,-252.36218)">
    <rect
       style="opacity:0.65843626000000000;color:#000000;fill:#ff0000;fill-opacity:0;fill-rule:nonzero;stroke:none;stroke-width:2;marker:none;visibility:visible;display:inline;overflow:visible;enable-background:accumulate"
       id="rect2990"
       width="480"
       height="800"
       x="0"
       y="252.36215" />
    <rect
       style="opacity:1;color:#000000;fill:#19aeff;fill-opacity:1;fill-rule:nonzero;stroke:none;stroke-width:2;marker:none;visibility:visible;display:inline;overflow:visible;enable-background:accumulate"
       id="rect3760"
       width="480"
       height="800"
       x="0"
       y="252.36215" />
    <rect
       style="color:#000000;fill:#ffffff;fill-opacity:1;fill-rule:nonzero;stroke:none;stroke-width:2;marker:none;visibility:visible;display:inline;overflow:visible;enable-background:accumulate"
       id="rect3762"
       width="90"
       height="90"
       x="355.14285"
       y="469.21933"
       ry="17.027027"
       rx="19.6875" />
    <g
       style="font-size:120px;font-style:normal;font-variant:normal;font-weight:bold;font-stretch:normal;text-align:center;line-height:125%;letter-spacing:0px;word-spacing:0px;writing-mode:lr-tb;text-anchor:middle;fill:#19aeff;fill-opacity:1;stroke:none;font-family:Nunito;-inkscape-font-specification:Nunito Bold"
       id="text3764">
      <path
         inkscape:connector-curvature="0"
         d="m 406.68372,510.32965 16.40625,0 c 0.82025,4e-5 1.67962,0.0977 2.57812,0.29297 0.93744,0.15628 1.77728,0.44925 2.51953,0.87891 0.78119,0.42972 1.42572,1.03519 1.9336,1.8164 0.50774,0.78128 0.76165,1.75785 0.76171,2.92969 -6e-5,1.05472 -0.21491,1.97268 -0.64453,2.75391 -0.42975,0.74221 -1.01569,1.36721 -1.75781,1.875 -0.70319,0.46877 -1.5235,0.82033 -2.46094,1.05468 -0.93756,0.19534 -1.91412,0.293 -2.92968,0.29297 l -16.40625,0 0,15.87891 c -5e-5,0.82032 -0.0977,1.69922 -0.29297,2.63672 -0.1563,0.89844 -0.44926,1.73828 -0.87891,2.51953 -0.42973,0.74219 -1.05473,1.36719 -1.875,1.875 -0.78129,0.46875 -1.77738,0.70312 -2.98828,0.70312 -2.10941,0 -3.65238,-0.72265 -4.62891,-2.16797 -0.93753,-1.4453 -1.40628,-3.30077 -1.40625,-5.5664 l 0,-15.87891 -16.34765,0 c -0.85939,3e-5 -1.75783,-0.0781 -2.69532,-0.23437 -0.89844,-0.19529 -1.73829,-0.50779 -2.51953,-0.9375 -0.74219,-0.42967 -1.36719,-1.03513 -1.875,-1.81641 -0.46875,-0.78122 -0.70313,-1.77731 -0.70312,-2.98828 -10e-6,-1.01559 0.1953,-1.8945 0.58594,-2.63672 0.42967,-0.74215 0.99608,-1.34762 1.69921,-1.81641 0.70312,-0.50777 1.52343,-0.87887 2.46094,-1.11328 0.93749,-0.23434 1.95311,-0.35152 3.04688,-0.35156 l 16.34765,0 0,-15.9375 c -3e-5,-0.82026 0.0781,-1.67963 0.23438,-2.57812 0.15622,-0.93745 0.44918,-1.77729 0.8789,-2.51954 0.42966,-0.78119 1.03513,-1.42572 1.81641,-1.93359 0.82028,-0.50775 1.85543,-0.76166 3.10547,-0.76172 1.09371,6e-5 2.01168,0.21491 2.75391,0.64453 0.7812,0.42975 1.4062,1.01569 1.875,1.75782 0.50777,0.74224 0.85933,1.58208 1.05468,2.51953 0.23433,0.93755 0.35152,1.89458 0.35157,2.87109 l 0,15.9375"
         id="path3031" />
    </g>
    <text
       xml:space="preserve"
       style="font-size:90px;font-style:normal;font-variant:normal;font-weight:normal;font-stretch:normal;text-align:end;line-height:125%;letter-spacing:0px;word-spacing:0px;writing-mode:lr-tb;text-anchor:end;fill:#ffffff;fill-opacity:1;stroke:none;font-family:Nunito;-inkscape-font-specification:Nunito"
       x="450.18582"
       y="639.505"
       id="text3768"
       sodipodi:linespacing="125%"><tspan
         sodipodi:role="line"
         id="tspan3770"
         x="450.18582"
         y="639.505">0000574</tspan></text>
    <text
       xml:space="preserve"
       style="font-size:40px;font-style:normal;font-variant:normal;font-weight:normal;font-stretch:normal;text-align:end;line-height:125%;letter-spacing:0px;word-spacing:0px;writing-mode:lr-tb;text-anchor:end;fill:#ffffff;fill-opacity:1;stroke:none;font-family:Nunito;-inkscape-font-specification:Nunito"
       x="449.11658"
       y="682.03589"
       id="text3772"
       sodipodi:linespacing="125%"><tspan
         sodipodi:role="line"
         id="tspan3774"
         x="449.11658"
         y="682.03589">Counter 1</tspan></text>
    <text
       xml:space="preserve"
       style="font-size:25px;font-style:normal;font-variant:normal;font-weight:normal;font-stretch:normal;text-align:center;line-height:125%;letter-spacing:0px;word-spacing:0px;writing-mode:lr-tb;text-anchor:middle;fill:#f2f2f2;fill-opacity:1;stroke:none;font-family:Nunito;-inkscape-font-specification:Nunito"
       x="238.201"
       y="368.93158"
       id="text3043"
       sodipodi:linespacing="125%"><tspan
         sodipodi:role="line"
         id="tspan3045"
         x="238.201"
         y="368.93158">tap screen to count</tspan></text>
    <g
       id="g3049"
       transform="matrix(2.7777778,0,0,2.7777778,196.505,-702.68256)"
       inkscape:export-filename="/home/sucio/android_apps/Counter/res/drawable-xhdpi/minus_light_blue.png"
       inkscape:export-xdpi="90"
       inkscape:export-ydpi="90">
      <rect
         style="color:#000000;fill:#ffffff;fill-opacity:1;fill-rule:nonzero;stroke:none;stroke-width:2;marker:none;visibility:visible;display:inline;overflow:visible;enable-background:accumulate"
         id="rect3047"
         width="90"
         height="90"
         x="-249.74571"
         y="463.56247"
         ry="17.027027"
         rx="19.6875" />
      <g
         transform="translate(-805.48216,-5.9566355)"
         id="text3026"
         style="font-size:120px;font-style:normal;font-variant:normal;font-weight:bold;font-stretch:normal;text-align:center;line-height:125%;letter-spacing:0px;word-spacing:0px;writing-mode:lr-tb;text-anchor:middle;fill:#19aeff;fill-opacity:1;stroke:none;font-family:Nunito;-inkscape-font-specification:Nunito Bold">
        <path
           inkscape:connector-curvature="0"
           id="path3034"
           d="m 589.69153,521.52106 c -0.93751,2e-5 -1.85548,-0.17576 -2.75391,-0.52735 -0.85938,-0.35153 -1.6211,-0.83981 -2.28515,-1.46484 -0.62501,-0.62497 -1.13282,-1.34763 -1.52344,-2.16797 -0.39063,-0.85934 -0.58594,-1.79684 -0.58594,-2.8125 0,-2.26559 0.78125,-4.00387 2.34375,-5.21484 1.60156,-1.2109 3.65234,-1.81637 6.15234,-1.81641 l 19.39454,0 c 0.85934,4e-5 1.77731,0.11723 2.7539,0.35156 1.01559,0.19535 1.93356,0.56645 2.75391,1.11328 0.85934,0.50785 1.56246,1.21098 2.10937,2.10938 0.5859,0.89847 0.87887,2.05081 0.87891,3.45703 -4e-5,1.25003 -0.25395,2.32425 -0.76172,3.22266 -0.46879,0.8594 -1.09379,1.56252 -1.875,2.10937 -0.78128,0.5469 -1.67972,0.95706 -2.69531,1.23047 -1.01566,0.27346 -2.07035,0.41018 -3.16406,0.41016 l -20.74219,0" />
      </g>
    </g>
    <g
       id="g3042"
       transform="matrix(2.7777778,0,0,2.7777778,239.43317,-776.4346)"
       inkscape:export-filename="/home/sucio/android_apps/Counter/res/drawable-xhdpi/plus_light_blue.png"
       inkscape:export-xdpi="90"
       inkscape:export-ydpi="90">
      <rect
         style="color:#000000;fill:#ffffff;fill-opacity:1;fill-rule:nonzero;stroke:none;stroke-width:2;marker:none;visibility:visible;display:inline;overflow:visible;enable-background:accumulate"
         id="rect3036"
         width="90"
         height="90"
         x="-268.32434"
         y="356.29041"
         ry="17.027027"
         rx="19.6875" />
      <g
         transform="translate(-624.0022,-114.92792)"
         style="font-size:120px;font-style:normal;font-variant:normal;font-weight:bold;font-stretch:normal;text-align:center;line-height:125%;letter-spacing:0px;word-spacing:0px;writing-mode:lr-tb;text-anchor:middle;fill:#19aeff;fill-opacity:1;stroke:none;font-family:Nunito;-inkscape-font-specification:Nunito Bold"
         id="g3038">
        <path
           inkscape:connector-curvature="0"
           d="m 406.68372,510.32965 16.40625,0 c 0.82025,4e-5 1.67962,0.0977 2.57812,0.29297 0.93744,0.15628 1.77728,0.44925 2.51953,0.87891 0.78119,0.42972 1.42572,1.03519 1.9336,1.8164 0.50774,0.78128 0.76165,1.75785 0.76171,2.92969 -6e-5,1.05472 -0.21491,1.97268 -0.64453,2.75391 -0.42975,0.74221 -1.01569,1.36721 -1.75781,1.875 -0.70319,0.46877 -1.5235,0.82033 -2.46094,1.05468 -0.93756,0.19534 -1.91412,0.293 -2.92968,0.29297 l -16.40625,0 0,15.87891 c -5e-5,0.82032 -0.0977,1.69922 -0.29297,2.63672 -0.1563,0.89844 -0.44926,1.73828 -0.87891,2.51953 -0.42973,0.74219 -1.05473,1.36719 -1.875,1.875 -0.78129,0.46875 -1.77738,0.70312 -2.98828,0.70312 -2.10941,0 -3.65238,-0.72265 -4.62891,-2.16797 -0.93753,-1.4453 -1.40628,-3.30077 -1.40625,-5.5664 l 0,-15.87891 -16.34765,0 c -0.85939,3e-5 -1.75783,-0.0781 -2.69532,-0.23437 -0.89844,-0.19529 -1.73829,-0.50779 -2.51953,-0.9375 -0.74219,-0.42967 -1.36719,-1.03513 -1.875,-1.81641 -0.46875,-0.78122 -0.70313,-1.77731 -0.70312,-2.98828 -10e-6,-1.01559 0.1953,-1.8945 0.58594,-2.63672 0.42967,-0.74215 0.99608,-1.34762 1.69921,-1.81641 0.70312,-0.50777 1.52343,-0.87887 2.46094,-1.11328 0.93749,-0.23434 1.95311,-0.35152 3.04688,-0.35156 l 16.34765,0 0,-15.9375 c -3e-5,-0.82026 0.0781,-1.67963 0.23438,-2.57812 0.15622,-0.93745 0.44918,-1.77729 0.8789,-2.51954 0.42966,-0.78119 1.03513,-1.42572 1.81641,-1.93359 0.82028,-0.50775 1.85543,-0.76166 3.10547,-0.76172 1.09371,6e-5 2.01168,0.21491 2.75391,0.64453 0.7812,0.42975 1.4062,1.01569 1.875,1.75782 0.50777,0.74224 0.85933,1.58208 1.05468,2.51953 0.23433,0.93755 0.35152,1.89458 0.35157,2.87109 l 0,15.9375"
           id="path3040" />
      </g>
    </g>
    <rect
       style="color:#000000;fill:none;stroke:#ffffff;stroke-width:7.34693861;stroke-miterlimit:4;stroke-dasharray:none;marker:none;visibility:visible;display:inline;overflow:visible;enable-background:accumulate"
       id="rect3037"
       width="82.653061"
       height="82.653061"
       x="34.673462"
       y="940.75482"
       ry="15.637066"
       rx="18.080357" />
    <g
       transform="translate(-524.73646,467.56225)"
       id="g3039"
       style="font-size:120px;font-style:normal;font-variant:normal;font-weight:bold;font-stretch:normal;text-align:center;line-height:125%;letter-spacing:0px;word-spacing:0px;writing-mode:lr-tb;text-anchor:middle;fill:#ffffff;fill-opacity:1;stroke:none;font-family:Nunito;-inkscape-font-specification:Nunito Bold">
      <path
         inkscape:connector-curvature="0"
         id="path3041"
         d="m 589.69153,521.52106 c -0.93751,2e-5 -1.85548,-0.17576 -2.75391,-0.52735 -0.85938,-0.35153 -1.6211,-0.83981 -2.28515,-1.46484 -0.62501,-0.62497 -1.13282,-1.34763 -1.52344,-2.16797 -0.39063,-0.85934 -0.58594,-1.79684 -0.58594,-2.8125 0,-2.26559 0.78125,-4.00387 2.34375,-5.21484 1.60156,-1.2109 3.65234,-1.81637 6.15234,-1.81641 l 19.39454,0 c 0.85934,4e-5 1.77731,0.11723 2.7539,0.35156 1.01559,0.19535 1.93356,0.56645 2.75391,1.11328 0.85934,0.50785 1.56246,1.21098 2.10937,2.10938 0.5859,0.89847 0.87887,2.05081 0.87891,3.45703 -4e-5,1.25003 -0.25395,2.32425 -0.76172,3.22266 -0.46879,0.8594 -1.09379,1.56252 -1.875,2.10937 -0.78128,0.5469 -1.67972,0.95706 -2.69531,1.23047 -1.01566,0.27346 -2.07035,0.41018 -3.16406,0.41016 l -20.74219,0"
         style="fill:#ffffff" />
    </g>
    <text
       xml:space="preserve"
       style="font-size:36px;font-style:normal;font-variant:normal;font-weight:normal;font-stretch:normal;text-align:start;line-height:100%;letter-spacing:0px;word-spacing:0px;writing-mode:lr-tb;text-anchor:start;fill:#ffffff;fill-opacity:1;stroke:none;font-family:Sans;-inkscape-font-specification:Sans"
       x="133.42136"
       y="978.82306"
       id="text3819"
       sodipodi:linespacing="100%"><tspan
         sodipodi:role="line"
         id="tspan3821"
         x="133.42136"
         y="978.82306">Decrease</tspan><tspan
         sodipodi:role="line"
         x="133.42136"
         y="1014.8231"
         id="tspan3823">Count</tspan></text>
    <g
       id="g3066"
       transform="matrix(2.7777778,0,0,2.7777778,-419.99999,-1671.478)"
       inkscape:export-filename="/home/sucio/android_apps/Counter/res/drawable-xhdpi/minus.png"
       inkscape:export-xdpi="90"
       inkscape:export-ydpi="90">
      <rect
         style="color:#000000;fill:none;stroke:#ffffff;stroke-width:7.34693861;stroke-miterlimit:4;stroke-dasharray:none;marker:none;visibility:visible;display:inline;overflow:visible;enable-background:accumulate"
         id="rect3041"
         width="82.653061"
         height="82.653061"
         x="354.67346"
         y="780.75482"
         ry="15.637066"
         rx="18.080357" />
      <g
         transform="translate(-204.73646,307.56225)"
         id="g3044"
         style="font-size:120px;font-style:normal;font-variant:normal;font-weight:bold;font-stretch:normal;text-align:center;line-height:125%;letter-spacing:0px;word-spacing:0px;writing-mode:lr-tb;text-anchor:middle;fill:#ffffff;fill-opacity:1;stroke:none;font-family:Nunito;-inkscape-font-specification:Nunito Bold">
        <path
           inkscape:connector-curvature="0"
           id="path3046"
           d="m 589.69153,521.52106 c -0.93751,2e-5 -1.85548,-0.17576 -2.75391,-0.52735 -0.85938,-0.35153 -1.6211,-0.83981 -2.28515,-1.46484 -0.62501,-0.62497 -1.13282,-1.34763 -1.52344,-2.16797 -0.39063,-0.85934 -0.58594,-1.79684 -0.58594,-2.8125 0,-2.26559 0.78125,-4.00387 2.34375,-5.21484 1.60156,-1.2109 3.65234,-1.81637 6.15234,-1.81641 l 19.39454,0 c 0.85934,4e-5 1.77731,0.11723 2.7539,0.35156 1.01559,0.19535 1.93356,0.56645 2.75391,1.11328 0.85934,0.50785 1.56246,1.21098 2.10937,2.10938 0.5859,0.89847 0.87887,2.05081 0.87891,3.45703 -4e-5,1.25003 -0.25395,2.32425 -0.76172,3.22266 -0.46879,0.8594 -1.09379,1.56252 -1.875,2.10937 -0.78128,0.5469 -1.67972,0.95706 -2.69531,1.23047 -1.01566,0.27346 -2.07035,0.41018 -3.16406,0.41016 l -20.74219,0"
           style="fill:#ffffff" />
      </g>
    </g>
    <g
       id="g3061"
       transform="matrix(2.7777778,0,0,2.7777778,-403.99999,-1547.2558)"
       inkscape:export-filename="/home/sucio/android_apps/Counter/res/drawable-xhdpi/plus.png"
       inkscape:export-xdpi="90"
       inkscape:export-ydpi="90">
      <rect
         rx="18.080357"
         ry="15.637066"
         y="880.75482"
         x="354.67346"
         height="82.653061"
         width="82.653061"
         id="rect3048"
         style="color:#000000;fill:none;stroke:#ffffff;stroke-width:7.34693861;stroke-miterlimit:4;stroke-dasharray:none;marker:none;visibility:visible;display:inline;overflow:visible;enable-background:accumulate" />
      <g
         transform="translate(-4.6778626,405.86303)"
         style="font-size:120px;font-style:normal;font-variant:normal;font-weight:bold;font-stretch:normal;text-align:center;line-height:125%;letter-spacing:0px;word-spacing:0px;writing-mode:lr-tb;text-anchor:middle;fill:#ffffff;fill-opacity:1;stroke:none;font-family:Nunito;-inkscape-font-specification:Nunito Bold"
         id="g3057">
        <path
           style="fill:#ffffff"
           inkscape:connector-curvature="0"
           d="m 406.68372,510.32965 16.40625,0 c 0.82025,4e-5 1.67962,0.0977 2.57812,0.29297 0.93744,0.15628 1.77728,0.44925 2.51953,0.87891 0.78119,0.42972 1.42572,1.03519 1.9336,1.8164 0.50774,0.78128 0.76165,1.75785 0.76171,2.92969 -6e-5,1.05472 -0.21491,1.97268 -0.64453,2.75391 -0.42975,0.74221 -1.01569,1.36721 -1.75781,1.875 -0.70319,0.46877 -1.5235,0.82033 -2.46094,1.05468 -0.93756,0.19534 -1.91412,0.293 -2.92968,0.29297 l -16.40625,0 0,15.87891 c -5e-5,0.82032 -0.0977,1.69922 -0.29297,2.63672 -0.1563,0.89844 -0.44926,1.73828 -0.87891,2.51953 -0.42973,0.74219 -1.05473,1.36719 -1.875,1.875 -0.78129,0.46875 -1.77738,0.70312 -2.98828,0.70312 -2.10941,0 -3.65238,-0.72265 -4.62891,-2.16797 -0.93753,-1.4453 -1.40628,-3.30077 -1.40625,-5.5664 l 0,-15.87891 -16.34765,0 c -0.85939,3e-5 -1.75783,-0.0781 -2.69532,-0.23437 -0.89844,-0.19529 -1.73829,-0.50779 -2.51953,-0.9375 -0.74219,-0.42967 -1.36719,-1.03513 -1.875,-1.81641 -0.46875,-0.78122 -0.70313,-1.77731 -0.70312,-2.98828 -10e-6,-1.01559 0.1953,-1.8945 0.58594,-2.63672 0.42967,-0.74215 0.99608,-1.34762 1.69921,-1.81641 0.70312,-0.50777 1.52343,-0.87887 2.46094,-1.11328 0.93749,-0.23434 1.95311,-0.35152 3.04688,-0.35156 l 16.34765,0 0,-15.9375 c -3e-5,-0.82026 0.0781,-1.67963 0.23438,-2.57812 0.15622,-0.93745 0.44918,-1.77729 0.8789,-2.51954 0.42966,-0.78119 1.03513,-1.42572 1.81641,-1.93359 0.82028,-0.50775 1.85543,-0.76166 3.10547,-0.76172 1.09371,6e-5 2.01168,0.21491 2.75391,0.64453 0.7812,0.42975 1.4062,1.01569 1.875,1.75782 0.50777,0.74224 0.85933,1.58208 1.05468,2.51953 0.23433,0.93755 0.35152,1.89458 0.35157,2.87109 l 0,15.9375"
           id="path3059" />
      </g>
    </g>
  </g>
</svg>
